# xmcd
#
# Track frame offsets:
#	150
#	13013
#	28569
#	48801
#	69032
#	81618
#	91726
#	107061
#
# Disc length: 1630 seconds
#
# Revision: 0
# Processed by: cddbd v1.5.1PL2 Copyright (c) Steve Scherf et al.
# Submitted via: dBpowerAMP V4.0
#
DISCID=55065c08
DTITLE=Annalyze McCoy - "Movin' On"
DYEAR=1900
DGENRE=Country
TTITLE0=(S.O.S) That's What Friends Do
TTITLE1=Baby, Can You Read My Lips?
TTITLE2=She Probably Won't Forget
TTITLE3=Movin' On
TTITLE4=Dance The Dance
TTITLE5=Rebirth Into Womanhood
TTITLE6=Hero
TTITLE7=Amazing Grace
EXTD=New Colony Records, Inc. 
EXTT0=
EXTT1=
EXTT2=
EXTT3=
EXTT4=
EXTT5=
EXTT6=
EXTT7=
PLAYORDER=
